<svg width="38" height="42" viewBox="0 0 38 42" fill="none" xmlns="http://www.w3.org/2000/svg">
<path d="M33 15C33 22.732 26.732 29 19 29M33 15C33 7.26801 26.732 1 19 1M33 15H5M19 29C11.268 29 5 22.732 5 15M19 29C22.5018 25.1663 24.4937 20.1912 24.6018 15C24.4937 9.80885 22.5018 4.83369 19 1M19 29C15.4982 25.1663 13.51 20.1912 13.4018 15C13.51 9.80885 15.4982 4.83369 19 1M19 29V33M5 15C5 7.26801 11.268 1 19 1M23 37C23 39.2091 21.2091 41 19 41C16.7909 41 15 39.2091 15 37M23 37C23 34.7909 21.2091 33 19 33M23 37H37M15 37C15 34.7909 16.7909 33 19 33M15 37H1" stroke="#475467" stroke-width="2" stroke-linecap="round" stroke-linejoin="round"/>
</svg>
