<svg preserveAspectRatio="none" width="100%" height="100%" overflow="visible" style="display: block;" viewBox="0 0 16 22" fill="none" xmlns="http://www.w3.org/2000/svg">
<g id="maps">
<path id="Subtract" fill-rule="evenodd" clip-rule="evenodd" d="M16 7.81159L15.9999 7.8541C15.9998 7.872 15.9996 7.8899 15.9994 7.90781C15.9998 7.92871 16 7.94976 16 7.97101C16 11.3073 13.4007 14.2604 11.6614 16.2367C11.1567 16.8101 10.7244 17.3013 10.449 17.6957C9.46939 19.0986 8.95239 20.6184 8.81633 21.2029C8.81633 21.6431 8.45085 22 8 22C7.54915 22 7.18367 21.6431 7.18367 21.2029C7.04761 20.6184 6.53061 19.0986 5.55102 17.6957C5.27563 17.3013 4.84333 16.8101 4.33863 16.2367C2.59927 14.2604 0 11.3073 0 7.97101C0 7.94976 0.000199298 7.92871 0.000597895 7.90781C0.000199298 7.87578 0 7.8437 0 7.81159C0 3.49736 3.58171 0 8 0C12.4183 0 16 3.49736 16 7.81159ZM8 10.6812C9.71321 10.6812 11.102 9.32504 11.102 7.65217C11.102 5.97931 9.71321 4.62319 8 4.62319C6.28679 4.62319 4.89796 5.97931 4.89796 7.65217C4.89796 9.32504 6.28679 10.6812 8 10.6812Z" fill="var(--fill-0, #34A851)"/>
<path id="Intersect" d="M15.1052 4.21856C14.1256 2.37546 12.4159 0.961773 10.3502 0.342773L5.75566 5.56145C6.32055 4.98352 7.1172 4.62346 7.99998 4.62346C9.71319 4.62346 11.102 5.97958 11.102 7.65244C11.102 8.33488 10.8709 8.96463 10.4809 9.47107L15.1052 4.21856Z" fill="var(--fill-0, #4285F5)"/>
<path id="Intersect_2" d="M4.4314 16.3422C4.40077 16.3074 4.36984 16.2723 4.33863 16.2368C3.19211 14.9342 1.67196 13.207 0.768896 11.2255L5.54423 5.80151C5.13905 6.31336 4.89796 6.95533 4.89796 7.65232C4.89796 9.32518 6.28679 10.6813 8 10.6813C8.86785 10.6813 9.65245 10.3333 10.2155 9.77246L4.4314 16.3422Z" fill="var(--fill-0, #F9BB0E)"/>
<path id="Subtract_2" d="M1.89288 2.76567C0.712073 4.12689 0 5.88811 0 7.81174C0 7.84384 0.000199298 7.87592 0.000597895 7.90795C0.000199298 7.92885 0 7.9499 0 7.97116C0 9.10827 0.301957 10.2009 0.768893 11.2255L5.53617 5.81065L1.89288 2.76567Z" fill="var(--fill-0, #E74335)"/>
<path id="Subtract_3" d="M10.3502 0.342543C9.60709 0.119877 8.81789 0 8.00001 0C5.55174 0 3.36036 1.07387 1.8929 2.76553L5.5362 5.81047L5.54413 5.80148C5.6104 5.71776 5.68105 5.63751 5.75577 5.56107L10.3502 0.342543Z" fill="var(--fill-0, #1A73E6)"/>
</g>
</svg>
