<svg width="16" height="22" viewBox="0 0 16 22" fill="none" xmlns="http://www.w3.org/2000/svg">
<path fill-rule="evenodd" clip-rule="evenodd" d="M16 7.81159L15.9999 7.8541C15.9998 7.872 15.9996 7.8899 15.9994 7.90781C15.9998 7.92871 16 7.94976 16 7.97101C16 11.3073 13.4007 14.2604 11.6614 16.2367C11.1567 16.8101 10.7244 17.3013 10.449 17.6957C9.46939 19.0986 8.95239 20.6184 8.81633 21.2029C8.81633 21.6431 8.45085 22 8 22C7.54915 22 7.18367 21.6431 7.18367 21.2029C7.04761 20.6184 6.53061 19.0986 5.55102 17.6957C5.27563 17.3013 4.84333 16.8101 4.33863 16.2367C2.59927 14.2604 0 11.3073 0 7.97101C0 7.94976 0.000199298 7.92871 0.000597895 7.90781C0.000199298 7.87578 0 7.8437 0 7.81159C0 3.49736 3.58171 0 8 0C12.4183 0 16 3.49736 16 7.81159ZM8 10.6812C9.71321 10.6812 11.102 9.32504 11.102 7.65217C11.102 5.97931 9.71321 4.62319 8 4.62319C6.28679 4.62319 4.89796 5.97931 4.89796 7.65217C4.89796 9.32504 6.28679 10.6812 8 10.6812Z" fill="#34A851"/>
<path d="M15.1052 4.21856C14.1256 2.37546 12.416 0.961773 10.3502 0.342773L5.75568 5.56145C6.32057 4.98352 7.11722 4.62346 8 4.62346C9.71321 4.62346 11.102 5.97958 11.102 7.65244C11.102 8.33488 10.8709 8.96463 10.4809 9.47107L15.1052 4.21856Z" fill="#4285F5"/>
<path d="M4.43143 16.3422C4.4008 16.3074 4.36987 16.2723 4.33866 16.2368C3.19213 14.9342 1.67198 13.207 0.768921 11.2255L5.54425 5.80151C5.13908 6.31336 4.89799 6.95533 4.89799 7.65232C4.89799 9.32518 6.28682 10.6813 8.00003 10.6813C8.86787 10.6813 9.65247 10.3333 10.2155 9.77246L4.43143 16.3422Z" fill="#F9BB0E"/>
<path d="M1.89288 2.76562C0.712074 4.12685 0 5.88806 0 7.81169C0 7.8438 0.000199298 7.87587 0.000597895 7.9079C0.000199298 7.9288 0 7.94986 0 7.97111C0 9.10822 0.301957 10.2009 0.768893 11.2254L5.53617 5.81061L1.89288 2.76562Z" fill="#E74335"/>
<path d="M10.3502 0.342543C9.60707 0.119877 8.81787 0 7.99999 0C5.55172 0 3.36034 1.07387 1.89288 2.76553L5.53618 5.81047L5.54411 5.80148C5.61038 5.71776 5.68103 5.63751 5.75575 5.56107L10.3502 0.342543Z" fill="#1A73E6"/>
</svg>
