<svg preserveAspectRatio="none" width="100%" height="100%" overflow="visible" style="display: block;" viewBox="0 0 0 0" fill="none" xmlns="http://www.w3.org/2000/svg">
<g id="logos" clip-path="url(#clip0_0_934)">
<rect width="0" height="0" fill="white"/>
<path id="logo_standard" fill-rule="evenodd" clip-rule="evenodd" d="M18.4148 13.4467H23.3241V26.6221C23.3241 28.7071 24.2779 29.9491 25.0321 30.4816C24.2336 31.1913 21.7936 31.8124 19.9748 30.304C18.9025 29.4149 18.4148 27.9529 18.4148 26.5776V13.4467ZM49.0959 24.3912V23.0066H50.5932V18.149H48.9489C48.3177 15.2327 45.7213 13.0474 42.6162 13.0474C39.0391 13.0474 36.1394 15.9472 36.1394 19.5242V30.868C37.1585 31.0112 38.3726 30.8502 39.4055 29.9936C40.4777 29.1043 40.9654 27.6425 40.9654 26.2672V25.8493H43.4172V20.9917H40.9654V19.5242H40.9712C40.9712 18.6158 41.7076 17.8794 42.6162 17.8794C43.5245 17.8794 44.2639 18.6158 44.2639 19.5242V24.3912C44.2639 27.9681 47.1667 30.868 50.7436 30.868V26.0359C49.8352 26.0359 49.0959 25.2995 49.0959 24.3912ZM30.5027 18.149V25.278C30.5027 25.6827 30.1669 26.0108 29.7525 26.0108C29.3382 26.0108 29.0024 25.6827 29.0024 25.278V18.149H24.1448V26.5334C24.1448 28.0416 24.6563 29.9491 26.984 30.5702C29.3142 31.192 30.666 29.9049 30.666 29.9049C30.5428 30.7528 29.7442 31.3739 28.4578 31.507C27.4844 31.6076 26.2396 31.2852 25.6187 31.019V35.4611C27.2009 35.9277 28.8744 36.0784 30.5121 35.7606C33.4843 35.1839 35.3602 32.6997 35.3602 29.3947V18.149H30.5027Z" fill="var(--fill-0, #EA0B8C)"/>
</g>
<defs>
<clipPath id="clip0_0_934">
<rect width="0" height="0" fill="white"/>
</clipPath>
</defs>
</svg>
