<svg width="26" height="26" viewBox="0 0 26 26" fill="none" xmlns="http://www.w3.org/2000/svg">
<path fill-rule="evenodd" clip-rule="evenodd" d="M13 25.1791C20.1797 25.1791 26 19.5426 26 12.5896C26 5.63654 20.1797 0 13 0C5.8203 0 0 5.63654 0 12.5896C0 16.3712 1.72168 19.7634 4.44737 22.0711V24.6188C4.44737 25.6145 5.4616 26.2824 6.36588 25.8821L9.19299 24.6307C10.397 24.9873 11.6754 25.1791 13 25.1791Z" fill="url(#paint0_linear_0_1)"/>
<path d="M9.88701 9.91332L6.11723 15.0689C5.71304 15.6217 6.43994 16.2858 6.99334 15.8693L10.2123 13.4469C10.5399 13.2003 10.9992 13.197 11.3307 13.4388L14.1935 15.5272C14.7425 15.9277 15.5272 15.8125 15.9269 15.2727L19.8805 9.93407C20.2905 9.3804 19.558 8.71094 19.0038 9.13284L15.6006 11.7236C15.2729 11.9731 14.8112 11.9777 14.4782 11.7347L11.6247 9.6531C11.0733 9.25092 10.285 9.36897 9.88701 9.91332Z" fill="white"/>
<defs>
<linearGradient id="paint0_linear_0_1" x1="13" y1="0" x2="8.82863" y2="25.8583" gradientUnits="userSpaceOnUse">
<stop stop-color="#00B1FF"/>
<stop offset="1" stop-color="#006BFF"/>
</linearGradient>
</defs>
</svg>
