<svg preserveAspectRatio="none" width="100%" height="100%" overflow="visible" style="display: block;" viewBox="0 0 21 25" fill="none" xmlns="http://www.w3.org/2000/svg">
<path id="vector" d="M0.792751 15.7463C0.949022 14.4524 1.47969 13.7279 2.47972 12.9853C3.91058 11.9795 5.69793 12.5484 5.69793 12.5484V9.17327C6.13245 9.16216 6.56715 9.18792 6.99694 9.25024V13.5937C6.99694 13.5937 5.21013 13.0248 3.77927 14.0311C2.77978 14.7732 2.24803 15.4982 2.0923 16.7921C2.08741 17.4947 2.21927 18.4131 2.82645 19.2072C2.67633 19.1303 2.52331 19.0425 2.3674 18.9441C1.02987 18.0459 0.78624 16.6985 0.792751 15.7463ZM14.377 2.9326C13.3927 1.854 13.0204 0.765002 12.8859 0H14.1241C14.1241 0 13.8772 2.00586 15.6765 3.97843L15.7015 4.00495C15.2165 3.69991 14.7718 3.33985 14.377 2.9326ZM20.3418 5.99053V10.2467C20.3418 10.2467 18.7618 10.1848 17.5924 9.88731C15.9597 9.47126 14.9103 8.83315 14.9103 8.83315C14.9103 8.83315 14.1854 8.3781 14.1268 8.34638V17.1353C14.1268 17.6247 13.9928 18.8468 13.5842 19.8661C13.0508 21.1996 12.2277 22.0748 12.0763 22.2537C12.0763 22.2537 11.0752 23.4368 9.30899 24.2336C7.71698 24.9523 6.31922 24.9341 5.90141 24.9523C5.90141 24.9523 3.48517 25.048 1.31094 23.635C0.840779 23.3235 0.401902 22.9708 0 22.5814L0.0108527 22.5892C2.18563 24.0021 4.60132 23.9065 4.60132 23.9065C5.01967 23.8883 6.41743 23.9065 8.0089 23.1877C9.77346 22.391 10.7762 21.2079 10.7762 21.2079C10.926 21.029 11.7529 20.1537 12.2841 18.8198C12.6916 17.801 12.8267 16.5783 12.8267 16.089V7.30107C12.8853 7.33331 13.6097 7.78836 13.6097 7.78836C13.6097 7.78836 14.6597 8.42699 16.2924 8.84251C17.4622 9.13998 19.0418 9.20187 19.0418 9.20187V5.86675C19.5822 5.98792 20.0429 6.02069 20.3418 5.99053Z" fill="var(--fill-0, #EE1D52)"/>
</svg>
