<svg preserveAspectRatio="none" width="100%" height="100%" overflow="visible" style="display: block;" viewBox="0 0 32 32" fill="none" xmlns="http://www.w3.org/2000/svg">
<g id="uber-svgrepo-com 1" clip-path="url(#clip0_0_883)">
<path id="Vector" d="M16 32C24.8366 32 32 24.8366 32 16C32 7.16344 24.8366 0 16 0C7.16344 0 0 7.16344 0 16C0 24.8366 7.16344 32 16 32Z" fill="var(--fill-0, black)"/>
<path id="Vector_2" d="M9.49687 18.2745C10.3375 18.2745 10.9906 17.6245 10.9906 16.6589V12.9089H11.9031V18.9839H11V18.4182C10.5906 18.8432 10.0281 19.087 9.39375 19.087C8.09063 19.087 7.09375 18.1401 7.09375 16.7089V12.9089H8.00625V16.6589C8.00625 17.6401 8.64687 18.2745 9.49687 18.2745ZM12.5813 12.9089H13.4594V15.1214C13.8719 14.6995 14.4406 14.4589 15.0312 14.462C16.3344 14.462 17.3563 15.4964 17.3563 16.7807C17.3563 18.0557 16.3312 19.0901 15.0312 19.0901C14.4375 19.0932 13.8687 18.8526 13.45 18.4307V18.987H12.5813V12.9089ZM14.9656 18.3182C15.8 18.3182 16.4844 17.6339 16.4844 16.7807C16.4844 15.9214 15.8 15.2432 14.9656 15.2432C14.125 15.2432 13.4375 15.9214 13.4375 16.7807C13.4406 17.6307 14.1156 18.3182 14.9656 18.3182ZM19.975 14.4714C21.25 14.4714 22.1875 15.4526 22.1875 16.7714V17.0589H18.5875C18.7094 17.7807 19.3094 18.3182 20.0531 18.3182C20.5656 18.3182 21 18.1089 21.3281 17.6682L21.9625 18.137C21.5187 18.7276 20.8594 19.0839 20.0531 19.0839C18.725 19.0839 17.7 18.0932 17.7 16.7745C17.7 15.5214 18.6813 14.4714 19.975 14.4714ZM18.6031 16.3651H21.3031C21.1563 15.687 20.6094 15.237 19.9562 15.237C19.3031 15.237 18.7594 15.687 18.6031 16.3651ZM24.5406 15.3401C23.9687 15.3401 23.55 15.7839 23.55 16.4682V18.987H22.6719V14.5589H23.5406V15.1057C23.7562 14.7495 24.1125 14.5245 24.6 14.5245H24.9031V15.3401H24.5406Z" fill="var(--fill-0, white)"/>
</g>
<defs>
<clipPath id="clip0_0_883">
<rect width="32" height="32" fill="white"/>
</clipPath>
</defs>
</svg>
