<svg preserveAspectRatio="none" width="100%" height="100%" overflow="visible" style="display: block;" viewBox="0 0 39 42" fill="none" xmlns="http://www.w3.org/2000/svg">
<path id="Icon" d="M27.325 15V9C27.325 4.58172 23.7432 1 19.325 1C14.9067 1 11.325 4.58172 11.325 9V15M2.50896 17.7039L1.30896 30.5039C0.96777 34.1433 0.797173 35.963 1.40106 37.3685C1.93155 38.6033 2.86119 39.6241 4.04099 40.2676C5.38401 41 7.21169 41 10.8671 41H27.7829C31.4382 41 33.2659 41 34.6089 40.2676C35.7887 39.6241 36.7184 38.6033 37.2489 37.3685C37.8527 35.963 37.6821 34.1433 37.341 30.5039L36.1409 17.7039C35.8528 14.6307 35.7088 13.0941 35.0176 11.9323C34.4089 10.9092 33.5096 10.0902 32.4341 9.57969C31.2129 9 29.6696 9 26.5829 9L12.0671 9C8.98034 9 7.43698 9 6.21579 9.57969C5.14029 10.0902 4.24097 10.9092 3.63228 11.9323C2.94114 13.0941 2.79708 14.6307 2.50896 17.7039Z" stroke="var(--stroke-0, #475467)" stroke-width="2" stroke-linecap="round" stroke-linejoin="round"/>
</svg>
