<svg preserveAspectRatio="none" width="100%" height="100%" overflow="visible" style="display: block;" viewBox="0 0 42 42" fill="none" xmlns="http://www.w3.org/2000/svg">
<g id="Icon">
<path d="M39.4 41C39.9601 41 40.2401 41 40.454 40.891C40.6422 40.7951 40.7951 40.6422 40.891 40.454C41 40.2401 41 39.9601 41 39.4V18.6C41 18.0399 41 17.7599 40.891 17.546C40.7951 17.3579 40.6422 17.2049 40.454 17.109C40.2401 17 39.9601 17 39.4 17L34.6 17C34.0399 17 33.7599 17 33.546 17.109C33.3578 17.2049 33.2049 17.3578 33.109 17.546C33 17.7599 33 18.0399 33 18.6V23.4C33 23.9601 33 24.2401 32.891 24.454C32.7951 24.6422 32.6422 24.7951 32.454 24.891C32.2401 25 31.9601 25 31.4 25H26.6C26.0399 25 25.7599 25 25.546 25.109C25.3578 25.2049 25.2049 25.3578 25.109 25.546C25 25.7599 25 26.0399 25 26.6V31.4C25 31.9601 25 32.2401 24.891 32.454C24.7951 32.6422 24.6422 32.7951 24.454 32.891C24.2401 33 23.9601 33 23.4 33H18.6C18.0399 33 17.7599 33 17.546 33.109C17.3578 33.2049 17.2049 33.3578 17.109 33.546C17 33.7599 17 34.0399 17 34.6V39.4C17 39.9601 17 40.2401 17.109 40.454C17.2049 40.6421 17.3578 40.7951 17.546 40.891C17.7599 41 18.0399 41 18.6 41L39.4 41Z" stroke="var(--stroke-0, #475467)" stroke-width="2" stroke-linecap="round" stroke-linejoin="round"/>
<path d="M17 10.6C17 10.0399 17 9.75992 17.109 9.54601C17.2049 9.35785 17.3578 9.20487 17.546 9.10899C17.7599 9 18.0399 9 18.6 9H23.4C23.9601 9 24.2401 9 24.454 9.10899C24.6422 9.20487 24.7951 9.35785 24.891 9.54601C25 9.75992 25 10.0399 25 10.6V15.4C25 15.9601 25 16.2401 24.891 16.454C24.7951 16.6422 24.6422 16.7951 24.454 16.891C24.2401 17 23.9601 17 23.4 17H18.6C18.0399 17 17.7599 17 17.546 16.891C17.3578 16.7951 17.2049 16.6422 17.109 16.454C17 16.2401 17 15.9601 17 15.4V10.6Z" stroke="var(--stroke-0, #475467)" stroke-width="2" stroke-linecap="round" stroke-linejoin="round"/>
<path d="M3 22.6C3 22.0399 3 21.7599 3.10899 21.546C3.20487 21.3578 3.35785 21.2049 3.54601 21.109C3.75992 21 4.03995 21 4.6 21H9.4C9.96005 21 10.2401 21 10.454 21.109C10.6422 21.2049 10.7951 21.3578 10.891 21.546C11 21.7599 11 22.0399 11 22.6V27.4C11 27.9601 11 28.2401 10.891 28.454C10.7951 28.6422 10.6422 28.7951 10.454 28.891C10.2401 29 9.96005 29 9.4 29H4.6C4.03995 29 3.75992 29 3.54601 28.891C3.35785 28.7951 3.20487 28.6422 3.10899 28.454C3 28.2401 3 27.9601 3 27.4V22.6Z" stroke="var(--stroke-0, #475467)" stroke-width="2" stroke-linecap="round" stroke-linejoin="round"/>
<path d="M1 2.6C1 2.03995 1 1.75992 1.10899 1.54601C1.20487 1.35785 1.35785 1.20487 1.54601 1.10899C1.75992 1 2.03995 1 2.6 1H7.4C7.96005 1 8.24008 1 8.45399 1.10899C8.64215 1.20487 8.79513 1.35785 8.89101 1.54601C9 1.75992 9 2.03995 9 2.6V7.4C9 7.96005 9 8.24008 8.89101 8.45399C8.79513 8.64215 8.64215 8.79513 8.45399 8.89101C8.24008 9 7.96005 9 7.4 9H2.6C2.03995 9 1.75992 9 1.54601 8.89101C1.35785 8.79513 1.20487 8.64215 1.10899 8.45399C1 8.24008 1 7.96005 1 7.4V2.6Z" stroke="var(--stroke-0, #475467)" stroke-width="2" stroke-linecap="round" stroke-linejoin="round"/>
</g>
</svg>
