<svg width="87" height="21" viewBox="0 0 87 21" fill="none" xmlns="http://www.w3.org/2000/svg">
<path d="M22.6097 7.25456H31.3125V8.82501H27.8858V17.6779H26.0076V8.82501H22.5953L22.6097 7.25456ZM30.9396 10.1314H32.5455V11.5907H32.5741C32.6315 11.3822 32.7318 11.1876 32.8752 10.9931C33.0186 10.7985 33.1907 10.6178 33.4057 10.4649C33.6064 10.2982 33.8359 10.1731 34.0938 10.0758C34.3376 9.97852 34.5957 9.92293 34.8538 9.92293C35.0545 9.92293 35.1979 9.93683 35.2695 9.93683C35.3412 9.95072 35.4272 9.96463 35.4989 9.96463V11.5628C35.3842 11.5351 35.2552 11.5212 35.1261 11.5072C34.9971 11.4934 34.8824 11.4795 34.7534 11.4795C34.4667 11.4795 34.1942 11.5351 33.9361 11.6462C33.6781 11.7574 33.463 11.9243 33.2623 12.1326C33.0759 12.3551 32.9182 12.6191 32.8035 12.9387C32.6888 13.2584 32.6315 13.6337 32.6315 14.0506V17.6362H30.911L30.9396 10.1314ZM43.3844 17.6779H41.6926V16.6216H41.664C41.4489 17.0108 41.1335 17.3026 40.7177 17.5389C40.3019 17.7752 39.8718 17.8864 39.4417 17.8864C38.4237 17.8864 37.6782 17.6501 37.2194 17.1497C36.7606 16.6633 36.5312 15.9129 36.5312 14.9262V10.1314H38.2517V14.7593C38.2517 15.4264 38.3807 15.8989 38.6531 16.163C38.9112 16.441 39.284 16.5799 39.757 16.5799C40.1155 16.5799 40.4166 16.5243 40.6603 16.4132C40.904 16.302 41.1048 16.163 41.2481 15.9824C41.4059 15.8018 41.5062 15.5793 41.578 15.3291C41.6496 15.0791 41.6782 14.801 41.6782 14.5093V10.1314H43.3988V17.6779H43.3844ZM46.3093 15.2597C46.3665 15.7461 46.553 16.0797 46.8827 16.2881C47.2124 16.4827 47.6139 16.5799 48.0727 16.5799C48.2305 16.5799 48.4168 16.5661 48.6175 16.5383C48.8183 16.5105 49.019 16.4688 49.191 16.3993C49.3773 16.3298 49.5207 16.2325 49.6354 16.0935C49.7502 15.9545 49.8075 15.7878 49.7932 15.5793C49.7788 15.3709 49.7072 15.1902 49.5494 15.0512C49.3917 14.9122 49.2054 14.8149 48.9759 14.7176C48.7465 14.6343 48.4742 14.5647 48.1731 14.5093C47.872 14.4536 47.5709 14.3841 47.2554 14.3147C46.9401 14.2451 46.6246 14.1618 46.3235 14.0645C46.0224 13.9672 45.7644 13.842 45.5207 13.6614C45.2912 13.4947 45.0905 13.2862 44.9615 13.0222C44.8182 12.7581 44.7464 12.4524 44.7464 12.0632C44.7464 11.6462 44.8468 11.3127 45.0619 11.0347C45.2626 10.7568 45.535 10.5344 45.8504 10.3677C46.1658 10.2009 46.5242 10.0758 46.9113 10.0063C47.2984 9.93683 47.6713 9.90903 48.0153 9.90903C48.4168 9.90903 48.8039 9.95072 49.1624 10.0341C49.5207 10.1175 49.8648 10.2426 50.1516 10.4372C50.4527 10.6178 50.6965 10.868 50.8828 11.1598C51.0835 11.4517 51.1982 11.813 51.2555 12.2299H49.4635C49.3773 11.827 49.191 11.5628 48.9043 11.4239C48.6032 11.2849 48.2735 11.2154 47.8864 11.2154C47.7716 11.2154 47.6139 11.2293 47.4562 11.2432C47.2842 11.271 47.1408 11.2988 46.9831 11.3544C46.8397 11.41 46.7106 11.4934 46.6102 11.5907C46.5099 11.688 46.4526 11.827 46.4526 11.9937C46.4526 12.2022 46.5242 12.3551 46.6676 12.4801C46.811 12.6052 46.9974 12.7024 47.2412 12.7997C47.4705 12.8832 47.7429 12.9526 48.044 13.0082C48.3451 13.0639 48.6605 13.1333 48.9759 13.2028C49.2913 13.2722 49.5924 13.3557 49.8935 13.453C50.1946 13.5503 50.467 13.6753 50.6965 13.856C50.9258 14.0228 51.1265 14.2312 51.2699 14.4814C51.4133 14.7316 51.485 15.0512 51.485 15.4126C51.485 15.8572 51.3846 16.2326 51.1695 16.5522C50.9544 16.8579 50.6821 17.122 50.3524 17.3166C50.0225 17.5112 49.6354 17.6501 49.234 17.7474C48.8183 17.8308 48.4168 17.8864 48.0153 17.8864C47.5279 17.8864 47.0691 17.8308 46.6534 17.7195C46.2375 17.6084 45.8648 17.4416 45.5637 17.2332C45.2626 17.0108 45.0189 16.7468 44.8468 16.4132C44.6748 16.0935 44.5744 15.7045 44.5601 15.2458H46.2949V15.2597H46.3093ZM51.9725 10.1314H53.2771V7.85216H54.9975V10.1175H56.546V11.3544H54.9975V15.3847C54.9975 15.5654 55.0119 15.7045 55.0263 15.8434C55.0405 15.9685 55.0837 16.0797 55.1267 16.163C55.184 16.2464 55.27 16.3159 55.3704 16.3576C55.485 16.3993 55.6285 16.427 55.8291 16.427C55.9438 16.427 56.0729 16.427 56.1875 16.4132C56.3023 16.3993 56.4313 16.3854 56.546 16.3576V17.6501C56.3597 17.6779 56.1733 17.6918 55.9868 17.7057C55.8005 17.7335 55.6285 17.7335 55.4277 17.7335C54.9689 17.7335 54.6105 17.6918 54.3381 17.6084C54.0656 17.525 53.8507 17.3999 53.6929 17.247C53.5352 17.0803 53.4348 16.8857 53.3774 16.6495C53.3201 16.4132 53.2915 16.1214 53.2771 15.8156V11.3683H51.9725V10.1036V10.1314ZM57.7504 10.1314H59.3705V11.1598H59.3991C59.6428 10.7151 59.9726 10.4093 60.4028 10.2148C60.8328 10.0202 61.2917 9.92293 61.8078 9.92293C62.4243 9.92293 62.9548 10.0202 63.4136 10.2426C63.8723 10.4511 64.2451 10.729 64.5462 11.1042C64.8473 11.4656 65.0767 11.8964 65.22 12.3828C65.3634 12.8693 65.4494 13.3974 65.4494 13.9393C65.4494 14.4536 65.3778 14.9401 65.2487 15.4126C65.1053 15.8851 64.9046 16.3159 64.6322 16.6772C64.3597 17.0386 64.0157 17.3305 63.5856 17.5528C63.1555 17.7752 62.668 17.8864 62.0945 17.8864C61.8507 17.8864 61.5928 17.8585 61.349 17.8168C61.1052 17.7752 60.8615 17.7057 60.6321 17.6084C60.4028 17.5112 60.1877 17.386 60.0013 17.2332C59.8006 17.0803 59.6428 16.8997 59.5138 16.7051H59.4851V20.4714H57.7646V10.1314H57.7504ZM63.7577 13.9116C63.7577 13.578 63.7147 13.2445 63.6143 12.9249C63.5282 12.6052 63.3848 12.3272 63.1985 12.077C63.0121 11.827 62.7827 11.6324 62.5247 11.4795C62.2522 11.3266 61.9369 11.2571 61.5928 11.2571C60.8758 11.2571 60.331 11.4934 59.9583 11.9797C59.5998 12.4662 59.4135 13.1195 59.4135 13.9255C59.4135 14.3147 59.4565 14.662 59.5568 14.9818C59.6572 15.3014 59.7862 15.5793 59.9869 15.8156C60.1733 16.0518 60.4028 16.2325 60.6751 16.3716C60.9476 16.5105 61.2487 16.5799 61.607 16.5799C62.0085 16.5799 62.3239 16.4966 62.5963 16.3437C62.8688 16.1908 63.0837 15.9824 63.2702 15.7461C63.4422 15.496 63.5712 15.218 63.6429 14.8983C63.7147 14.5647 63.7577 14.2451 63.7577 13.9116ZM66.7828 7.25456H68.5032V8.82501H66.7828V7.25456ZM66.7828 10.1314H68.5032V17.6779H66.7828V10.1314ZM70.0373 7.25456H71.7578V17.6779H70.0373V7.25456ZM77.0053 17.8864C76.3888 17.8864 75.8296 17.7891 75.3422 17.5806C74.8547 17.3722 74.4533 17.1081 74.1092 16.7606C73.7793 16.4132 73.5213 15.9824 73.3492 15.496C73.1773 15.0095 73.0769 14.4675 73.0769 13.8977C73.0769 13.3279 73.1629 12.7997 73.3492 12.3134C73.5213 11.827 73.7793 11.41 74.1092 11.0487C74.4389 10.7012 74.8547 10.4232 75.3422 10.2287C75.8296 10.0341 76.3888 9.92293 77.0053 9.92293C77.6217 9.92293 78.1809 10.0202 78.6684 10.2287C79.1558 10.4232 79.5573 10.7012 79.9014 11.0487C80.2312 11.3961 80.4892 11.827 80.6613 12.3134C80.8333 12.7997 80.9336 13.3279 80.9336 13.8977C80.9336 14.4814 80.8476 15.0095 80.6613 15.496C80.4749 15.9824 80.2312 16.3993 79.9014 16.7606C79.5716 17.1081 79.1558 17.386 78.6684 17.5806C78.1809 17.7752 77.6361 17.8864 77.0053 17.8864ZM77.0053 16.5661C77.378 16.5661 77.7222 16.4827 77.9945 16.3298C78.2813 16.177 78.4964 15.9685 78.6827 15.7183C78.8691 15.4681 78.9982 15.1763 79.0842 14.8705C79.1702 14.5509 79.2132 14.2312 79.2132 13.8977C79.2132 13.578 79.1702 13.2584 79.0842 12.9387C78.9982 12.6191 78.8691 12.3412 78.6827 12.091C78.4964 11.8408 78.2669 11.6462 77.9945 11.4934C77.7078 11.3405 77.378 11.2571 77.0053 11.2571C76.6325 11.2571 76.2885 11.3405 76.016 11.4934C75.7293 11.6462 75.5142 11.8547 75.3278 12.091C75.1414 12.3412 75.0123 12.6191 74.9263 12.9387C74.8403 13.2584 74.7973 13.578 74.7973 13.8977C74.7973 14.2312 74.8403 14.5509 74.9263 14.8705C75.0123 15.1902 75.1414 15.4681 75.3278 15.7183C75.5142 15.9685 75.7436 16.177 76.016 16.3298C76.3027 16.4966 76.6325 16.5661 77.0053 16.5661ZM81.4498 10.1314H82.7544V7.85216H84.475V10.1175H86.0234V11.3544H84.475V15.3847C84.475 15.5654 84.4893 15.7045 84.5037 15.8434C84.518 15.9685 84.561 16.0797 84.604 16.163C84.6614 16.2464 84.7474 16.3159 84.8477 16.3576C84.9625 16.3993 85.1058 16.427 85.3066 16.427C85.4212 16.427 85.5503 16.427 85.6649 16.4132C85.7796 16.3993 85.9086 16.3854 86.0234 16.3576V17.6501C85.837 17.6779 85.6507 17.6918 85.4642 17.7057C85.2778 17.7335 85.1058 17.7335 84.9051 17.7335C84.4463 17.7335 84.0878 17.6918 83.8155 17.6084C83.543 17.525 83.328 17.3999 83.1703 17.247C83.0125 17.0803 82.9122 16.8857 82.8548 16.6495C82.7976 16.4132 82.7688 16.1214 82.7544 15.8156V11.3683H81.4498V10.1036V10.1314Z" fill="#292B2E"/>
<path d="M20.6026 7.25465H12.7315L10.3085 0L7.87116 7.25465L0 7.24075L6.36574 11.7297L3.9284 18.9844L10.2941 14.4954L16.6599 18.9844L14.2369 11.7297L20.6026 7.25465Z" fill="#51B37F"/>
<path d="M14.7816 13.3698L14.2367 11.7299L10.3083 14.4956L14.7816 13.3698Z" fill="white"/>
</svg>
