<svg preserveAspectRatio="none" width="100%" height="100%" overflow="visible" style="display: block;" viewBox="0 0 22 20" fill="none" xmlns="http://www.w3.org/2000/svg">
<path id="Icon" d="M11.913 15H19.087M11.913 15L10 19M11.913 15L14.7783 9.00902C15.0092 8.52627 15.1246 8.2849 15.2826 8.20862C15.4199 8.14228 15.5801 8.14228 15.7174 8.20862C15.8754 8.2849 15.9908 8.52627 16.2217 9.00902L19.087 15M19.087 15L21 19M1 3H7M7 3H10.5M7 3V1M10.5 3H13M10.5 3C10.0039 5.95729 8.85259 8.63618 7.16555 10.8844M9 12C8.38747 11.7248 7.76265 11.3421 7.16555 10.8844M7.16555 10.8844C5.81302 9.84776 4.60276 8.42664 4 7M7.16555 10.8844C5.56086 13.0229 3.47143 14.7718 1 16" stroke="var(--stroke-0, #231F20)" stroke-width="2" stroke-linecap="round" stroke-linejoin="round"/>
</svg>
