<svg preserveAspectRatio="none" width="100%" height="100%" overflow="visible" style="display: block;" viewBox="0 0 28 28" fill="none" xmlns="http://www.w3.org/2000/svg">
<path id="Vector" d="M12.9701 4.37259H15.5217L13.1483 6.09689L14.0549 8.88694L11.6816 7.16264L9.30825 8.88694L10.0914 6.47664C8.00166 8.21734 6.17006 10.2568 4.66069 12.5291H5.47827L3.96747 13.6267C3.73209 14.0194 3.50634 14.4182 3.29 14.823L4.01144 17.0435L2.66547 16.0655C2.33089 16.7744 2.02486 17.4992 1.74978 18.2392L2.54461 20.6857H5.47827L3.10483 22.41L4.01144 25.2L1.63811 23.4757L0.216453 24.5086C0.0741562 25.6525 0 26.8175 0 28H28C28 12.5361 28 10.7131 28 0C22.4687 0 17.3124 1.60453 12.9701 4.37259ZM14.0549 25.2L11.6816 23.4757L9.30825 25.2L10.2149 22.41L7.84142 20.6857H10.7751L11.6816 17.8956L12.5881 20.6857H15.5217L13.1483 22.41L14.0549 25.2ZM13.1483 14.2534L14.0549 17.0435L11.6816 15.3192L9.30825 17.0435L10.2149 14.2534L7.84142 12.5291H10.7751L11.6816 9.73908L12.5881 12.5291H15.5217L13.1483 14.2534ZM24.0984 25.2L21.725 23.4757L19.3517 25.2L20.2583 22.41L17.8849 20.6857H20.8185L21.725 17.8956L22.6315 20.6857H25.5652L23.1918 22.41L24.0984 25.2ZM23.1918 14.2534L24.0984 17.0435L21.725 15.3192L19.3517 17.0435L20.2583 14.2534L17.8849 12.5291H20.8185L21.725 9.73908L22.6315 12.5291H25.5652L23.1918 14.2534ZM23.1918 6.09689L24.0984 8.88694L21.725 7.16264L19.3517 8.88694L20.2583 6.09689L17.8849 4.37259H20.8185L21.725 1.58255L22.6315 4.37259H25.5652L23.1918 6.09689Z" fill="var(--fill-0, #0052B4)"/>
</svg>
